<svg width="14" height="16" viewBox="0 0 14 16" fill="none" xmlns="http://www.w3.org/2000/svg">
<path fill-rule="evenodd" clip-rule="evenodd" d="M12.4444 1.55556H11.6667V0.777778C11.6667 0.35 11.3167 0 10.8889 0C10.4611 0 10.1111 0.35 10.1111 0.777778V1.55556H3.88889V0.777778C3.88889 0.35 3.53889 0 3.11111 0C2.68333 0 2.33333 0.35 2.33333 0.777778V1.55556H1.55556C0.692222 1.55556 0.00777778 2.25556 0.00777778 3.11111L0 14C0 14.8556 0.692222 15.5556 1.55556 15.5556H12.4444C13.3 15.5556 14 14.8556 14 14V3.11111C14 2.25556 13.3 1.55556 12.4444 1.55556ZM12.4444 13.2222C12.4444 13.65 12.0944 14 11.6667 14H2.33333C1.90556 14 1.55556 13.65 1.55556 13.2222V5.44444H12.4444V13.2222ZM4.66667 8.55556V7H3.11111V8.55556H4.66667ZM6.22222 7H7.77778V8.55556H6.22222V7ZM10.8889 7H9.33333V8.55556H10.8889V7Z" fill="#444444" fill-opacity="0.7"/>
</svg>
