<svg width="40" height="43" viewBox="0 0 40 43" fill="none" xmlns="http://www.w3.org/2000/svg">
<rect y="0.486694" width="40" height="42.4658" rx="4" fill="#4AC959"/>
<g clip-path="url(#clip0_36_335)">
<path d="M26.39 14.911C24.68 13.1561 22.43 12.1648 20.0338 12.1648C13.1562 12.1648 8.83775 20.0754 12.272 26.368L11 31.2744L15.7513 29.959C17.8212 31.1462 19.517 31.0411 20.0382 31.1112C28.013 31.1112 31.9827 20.8684 26.3787 14.9421L26.39 14.911Z" fill="#ECEFF1"/>
<path d="M20.0504 29.4837L20.0459 29.4829H20.0339C17.6474 29.4829 16.1227 28.2829 15.9727 28.2137L13.1602 28.99L13.9139 26.0877L13.7347 25.7891C12.9922 24.5343 12.5977 23.0891 12.5977 21.6009C12.5977 14.5997 20.6564 11.0986 25.3199 16.0472C29.9722 20.9441 26.7059 29.4837 20.0504 29.4837Z" fill="#4AC959"/>
<path d="M24.1302 23.5565L24.1234 23.6162C23.8977 23.4968 22.7982 22.9259 22.5934 22.8471C22.1337 22.6663 22.2634 22.8184 21.3807 23.8917C21.2494 24.047 21.1189 24.059 20.8962 23.9515C20.6712 23.832 19.9489 23.5812 19.0939 22.7691C18.4279 22.136 17.9809 21.3597 17.8489 21.1208C17.6292 20.718 18.0889 20.6606 18.5074 19.8198C18.5824 19.6526 18.5442 19.5212 18.4887 19.4026C18.4324 19.2831 17.9847 18.1127 17.7972 17.6461C17.6172 17.1811 17.4319 17.24 17.2932 17.24C16.8612 17.2002 16.5454 17.2066 16.2672 17.5139C15.0567 18.9264 15.3619 20.3835 16.3977 21.933C18.4332 24.7612 19.5177 25.282 21.5007 26.0049C22.0362 26.1857 22.5244 26.1602 22.9107 26.1013C23.3412 26.0288 24.2359 25.5272 24.4227 24.9659C24.6139 24.4045 24.6139 23.9387 24.5577 23.8312C24.5022 23.7237 24.3552 23.664 24.1302 23.5565Z" fill="#FAFAFA"/>
</g>
<defs>
<clipPath id="clip0_36_335">
<rect width="18" height="19.1096" fill="white" transform="translate(11 12.1648)"/>
</clipPath>
</defs>
</svg>
